# xmcd
#
# Track frame offsets:
#	150
#	11677
#	30468
#	47242
#	58775
#	78763
#	93189
#	115859
#	129158
#	133423
#	149840
#	167737
#	187009
#	192653
#	207801
#	226058
#	241981
#
# Disc length: 3477 seconds
# Revision: 0
# Processed by: cddbd v1.5.2PL0 Copyright (c) Steve Scherf et al.
# Submitted via: dBpowerAMP V12.0
#
DISCID=ed0d9311
DTITLE=Various Artist - Blackout! 2
DYEAR=2009
DGENRE=Hip Hop
TTITLE0=Method Man and Redman - BO2 (Intro)
TTITLE1=Method Man and Redman - I'm Dope Nigga
TTITLE2=Method Man and Redman featuring Saukrates - A-Yo
TTITLE3=Method Man and Redman - Dangerous Mcees
TTITLE4=Method Man and Redman featuring Keith Murray - Errbody Scream
TTITLE5=Method Man and Redman - Hey Zulu
TTITLE6=Method Man and Redman featuring Bun B - City Lights
TTITLE7=Method Man and Redman - Father's Day
TTITLE8=Method Man and Redman featuring Tanisha Green, Michelle Pinckney and Saukrates - Mrs. International (Skit)
TTITLE9=Method Man and Redman featuring Erick Sermon - Mrs. International
TTITLE10=Method Man and Redman featuring Ready Roc and Streetlife - How Bout Dat
TTITLE11=Method Man and Redman - Dis Iz 4 All My Smokers
TTITLE12=Method Man and Redman featuring DJ Kayslay, C.O. Ellis, Reggie Noble and Ready Roc - Lock Down (Skit)
TTITLE13=Method Man and Redman featuring Raekwon and Ghostface Killah - Four Minutes To Lock Down
TTITLE14=Method Man and Redman - Neva Heard Dis B 4
TTITLE15=Method Man and Redman featuring Poo Bear - I Know Sumptn
TTITLE16=Method Man and Redman featuring Melanie Rutherford - A Lil Bit
EXTD=
EXTT0=
EXTT1=
EXTT2=
EXTT3=
EXTT4=
EXTT5=
EXTT6=
EXTT7=
EXTT8=
EXTT9=
EXTT10=
EXTT11=
EXTT12=
EXTT13=
EXTT14=
EXTT15=
EXTT16=
PLAYORDER=
